<svg width="52" height="52" viewBox="0 0 52 52" fill="none" xmlns="http://www.w3.org/2000/svg">
<path d="M1 10.9993C1 5.47642 5.47715 0.999268 11 0.999268H41C46.5228 0.999268 51 5.47642 51 10.9993V40.9993C51 46.5221 46.5228 50.9993 41 50.9993H11C5.47715 50.9993 1 46.5221 1 40.9993V10.9993Z" stroke="url(#paint0_linear_20_185)" stroke-linejoin="round"/>
<path d="M10.1625 12.5374L16.6623 11.0374C17.3686 10.8749 18.0936 11.2437 18.3811 11.9062L21.381 18.906C21.6435 19.5185 21.4685 20.2372 20.9498 20.656L17.1623 23.7559C19.4123 28.5496 23.3435 32.537 28.2371 34.8307L31.337 31.0433C31.762 30.5245 32.4745 30.3495 33.087 30.612L40.0869 33.612C40.7556 33.9057 41.1243 34.6307 40.9618 35.3369L39.4619 41.8368C39.3056 42.5118 38.7056 42.9993 37.9994 42.9993C21.9935 42.9993 9 30.0308 9 13.9999C9 13.2999 9.48124 12.6937 10.1625 12.5374Z" fill="url(#paint1_linear_20_185)"/>
<defs>
<linearGradient id="paint0_linear_20_185" x1="26" y1="0.999268" x2="26" y2="50.9993" gradientUnits="userSpaceOnUse">
<stop stop-color="#FF2303"/>
<stop offset="1" stop-color="#FFE603"/>
</linearGradient>
<linearGradient id="paint1_linear_20_185" x1="25" y1="10.9993" x2="25" y2="42.9993" gradientUnits="userSpaceOnUse">
<stop stop-color="#FF2303"/>
<stop offset="1" stop-color="#FFE603"/>
</linearGradient>
</defs>
</svg>
