<svg width="52" height="52" viewBox="0 0 52 52" fill="none" xmlns="http://www.w3.org/2000/svg">
<path d="M1 10.9991C1 5.4763 5.47715 0.999146 11 0.999146H41C46.5228 0.999146 51 5.4763 51 10.9991V40.9991C51 46.522 46.5228 50.9991 41 50.9991H11C5.47715 50.9991 1 46.522 1 40.9991V10.9991Z" stroke="url(#paint0_linear_20_186)" stroke-linejoin="round"/>
<path d="M25.78 9.99915C22.6652 10.0017 19.678 11.2152 17.4708 13.3745C15.2636 15.5339 14.0159 18.4636 14 21.5239C14 26.1121 16.62 29.9537 18.54 32.7538L18.89 33.2647C20.8003 35.9849 22.8496 38.6083 25.03 41.1247L25.79 41.9991L26.55 41.1247C28.7302 38.608 30.7794 35.9847 32.69 33.2647L33.04 32.744C34.95 29.9439 37.57 26.1121 37.57 21.5239C37.5541 18.4619 36.305 15.5307 34.0956 13.3711C31.8863 11.2114 28.8965 9.99911 25.78 9.99915ZM25.78 26.7016C24.4826 26.7016 23.2142 26.3236 22.1355 25.6154C21.0567 24.9072 20.2159 23.9006 19.7194 22.7229C19.2228 21.5452 19.0929 20.2493 19.346 18.999C19.5992 17.7488 20.2239 16.6004 21.1414 15.699C22.0588 14.7976 23.2277 14.1838 24.5002 13.9351C25.7727 13.6864 27.0917 13.814 28.2904 14.3019C29.4891 14.7897 30.5136 15.6158 31.2344 16.6757C31.9553 17.7356 32.34 18.9817 32.34 20.2564C32.34 21.9658 31.6489 23.6052 30.4186 24.8139C29.1884 26.0226 27.5198 26.7016 25.78 26.7016Z" fill="url(#paint1_linear_20_186)"/>
<defs>
<linearGradient id="paint0_linear_20_186" x1="26" y1="0.999146" x2="26" y2="50.9991" gradientUnits="userSpaceOnUse">
<stop stop-color="#FF2303"/>
<stop offset="1" stop-color="#FFE603"/>
</linearGradient>
<linearGradient id="paint1_linear_20_186" x1="25.785" y1="9.99915" x2="25.785" y2="41.9991" gradientUnits="userSpaceOnUse">
<stop stop-color="#FF2303"/>
<stop offset="1" stop-color="#FFE603"/>
</linearGradient>
</defs>
</svg>
