<svg width="352" height="20" viewBox="0 0 352 20" fill="none" xmlns="http://www.w3.org/2000/svg">
<path d="M10 0L13.1153 5.71221L19.5106 6.90983L15.0406 11.6378L15.8779 18.0902L10 15.3L4.12215 18.0902L4.9594 11.6378L0.489435 6.90983L6.88474 5.71221L10 0Z" fill="#E6EB1C"/>
<path d="M35 0L38.1153 5.71221L44.5106 6.90983L40.0406 11.6378L40.8779 18.0902L35 15.3L29.1221 18.0902L29.9594 11.6378L25.4894 6.90983L31.8847 5.71221L35 0Z" fill="#E6EB1C"/>
<path d="M60 0L63.1153 5.71221L69.5106 6.90983L65.0406 11.6378L65.8779 18.0902L60 15.3L54.1221 18.0902L54.9594 11.6378L50.4894 6.90983L56.8847 5.71221L60 0Z" fill="#E6EB1C"/>
<path d="M85 0L88.1153 5.71221L94.5106 6.90983L90.0406 11.6378L90.8779 18.0902L85 15.3L79.1221 18.0902L79.9594 11.6378L75.4894 6.90983L81.8847 5.71221L85 0Z" fill="#E6EB1C"/>
<path d="M110 0L113.115 5.71221L119.511 6.90983L115.041 11.6378L115.878 18.0902L110 15.3L104.122 18.0902L104.959 11.6378L100.489 6.90983L106.885 5.71221L110 0Z" fill="#E6EB1C"/>
</svg>
