<svg width="52" height="52" viewBox="0 0 52 52" fill="none" xmlns="http://www.w3.org/2000/svg">
<path d="M1 10.9993C1 5.47642 5.47715 0.999268 11 0.999268H41C46.5228 0.999268 51 5.47642 51 10.9993V40.9993C51 46.5221 46.5228 50.9993 41 50.9993H11C5.47715 50.9993 1 46.5221 1 40.9993V10.9993Z" stroke="url(#paint0_linear_20_184)" stroke-linejoin="round"/>
<path d="M25 12.9993C17.2688 12.9993 11 19.268 11 26.9993C11 34.7305 17.2688 40.9993 25 40.9993C32.7313 40.9993 39 34.7305 39 26.9993C39 19.268 32.7313 12.9993 25 12.9993ZM30.5156 31.3024L29.6219 32.5211C29.6024 32.5477 29.5779 32.5701 29.5498 32.5872C29.5217 32.6042 29.4904 32.6155 29.4579 32.6205C29.4254 32.6254 29.3922 32.6239 29.3603 32.6159C29.3284 32.608 29.2983 32.5938 29.2719 32.5743L24.1031 28.8055C24.0709 28.7824 24.0448 28.7519 24.0268 28.7165C24.0089 28.6812 23.9997 28.642 24 28.6024V19.9993C24 19.8618 24.1125 19.7493 24.25 19.7493H25.7531C25.8906 19.7493 26.0031 19.8618 26.0031 19.9993V27.7336L30.4594 30.9555C30.5719 31.0336 30.5969 31.1899 30.5156 31.3024Z" fill="url(#paint1_linear_20_184)"/>
<defs>
<linearGradient id="paint0_linear_20_184" x1="26" y1="0.999268" x2="26" y2="50.9993" gradientUnits="userSpaceOnUse">
<stop stop-color="#FF2303"/>
<stop offset="1" stop-color="#FFE603"/>
</linearGradient>
<linearGradient id="paint1_linear_20_184" x1="25" y1="12.9993" x2="25" y2="40.9993" gradientUnits="userSpaceOnUse">
<stop stop-color="#FF2303"/>
<stop offset="1" stop-color="#FFE603"/>
</linearGradient>
</defs>
</svg>
